<svg width="1010" height="164" viewBox="0 0 1010 164" fill="none" xmlns="http://www.w3.org/2000/svg">
<mask id="path-1-outside-1_57_412" maskUnits="userSpaceOnUse" x="435" y="-2" width="142" height="70" fill="black">
<rect fill="white" x="435" y="-2" width="142" height="70"/>
<path d="M498.17 33.512C498.17 55.688 482.618 65.672 468.122 65.672C453.53 65.672 437.882 55.496 437.882 33.128C437.882 14.216 450.266 0.967995 468.122 0.967995C483.002 0.967995 498.17 12.104 498.17 33.512ZM491.834 39.464C491.354 21.8 480.698 2.696 464.57 2.696C458.714 2.696 453.818 4.712 450.266 8.648C446.138 13.16 444.026 19.976 444.314 27.944C444.89 45.224 455.546 63.848 471.674 63.848C477.626 63.848 482.618 61.832 486.17 57.896C490.106 53.672 492.122 47.048 491.834 39.464ZM534.051 18.536H540.963V64.52H534.243V56.84C534.243 56.84 527.715 65.384 518.691 65.384C509.571 65.384 504.483 58.856 504.483 48.776V18.536H511.299V49.544C511.299 64.232 525.411 65.384 534.051 55.496V18.536ZM567.437 17.576C571.853 17.288 574.061 19.688 574.061 19.688L572.237 24.776C572.237 24.776 568.781 21.128 564.653 21.128C559.469 21.128 556.589 26.504 556.589 26.504V64.52H549.773V18.536H556.589V24.68C556.589 24.68 561.101 18.056 567.437 17.576Z"/>
</mask>
<path d="M491.834 39.464L489.835 39.5183L489.835 39.5291L489.836 39.5399L491.834 39.464ZM450.266 8.648L451.742 9.99806L451.751 9.98793L450.266 8.648ZM444.314 27.944L446.313 27.8774L446.313 27.8718L444.314 27.944ZM486.17 57.896L484.707 56.5325L484.696 56.5442L484.685 56.5561L486.17 57.896ZM496.17 33.512C496.17 44.0976 492.476 51.5858 487.225 56.4392C481.938 61.3251 474.93 63.672 468.122 63.672V67.672C475.81 67.672 483.826 65.0269 489.94 59.3768C496.088 53.6942 500.17 45.1024 500.17 33.512H496.17ZM468.122 63.672C461.273 63.672 454.218 61.2814 448.893 56.3242C443.602 51.3984 439.882 43.8117 439.882 33.128H435.882C435.882 44.8123 439.986 53.4976 446.167 59.2518C452.315 64.9746 460.379 67.672 468.122 67.672V63.672ZM439.882 33.128C439.882 24.1117 442.829 16.5827 447.764 11.3248C452.691 6.07656 459.711 2.96799 468.122 2.96799V-1.03201C458.677 -1.03201 450.577 2.48343 444.848 8.58719C439.127 14.6813 435.882 23.2323 435.882 33.128H439.882ZM468.122 2.96799C481.963 2.96799 496.17 13.2732 496.17 33.512H500.17C500.17 10.9348 484.041 -1.03201 468.122 -1.03201V2.96799ZM493.833 39.4097C493.584 30.2315 490.699 20.6612 485.725 13.3329C480.75 6.00308 473.509 0.695995 464.57 0.695995V4.696C471.759 4.696 477.91 8.94091 482.415 15.5791C486.922 22.2188 489.604 31.0325 489.835 39.5183L493.833 39.4097ZM464.57 0.695995C458.223 0.695995 452.76 2.89932 448.781 7.30807L451.751 9.98793C454.876 6.52467 459.205 4.696 464.57 4.696V0.695995ZM448.791 7.29797C444.212 12.3022 442.014 19.686 442.315 28.0162L446.313 27.8718C446.038 20.266 448.064 14.0178 451.742 9.99803L448.791 7.29797ZM442.315 28.0106C442.615 37.0018 445.529 46.3594 450.521 53.5198C455.518 60.6862 462.758 65.848 471.674 65.848V61.848C464.462 61.848 458.31 57.6978 453.803 51.2322C449.291 44.7606 446.589 36.1662 446.313 27.8774L442.315 28.0106ZM471.674 65.848C478.101 65.848 483.667 63.6553 487.655 59.2359L484.685 56.5561C481.57 60.0087 477.151 61.848 471.674 61.848V65.848ZM487.633 59.2595C492.039 54.5309 494.134 47.3229 493.833 39.3881L489.836 39.5399C490.11 46.7731 488.173 52.8131 484.707 56.5325L487.633 59.2595ZM534.051 18.536V16.536H532.051V18.536H534.051ZM540.963 18.536H542.963V16.536H540.963V18.536ZM540.963 64.52V66.52H542.963V64.52H540.963ZM534.243 64.52H532.243V66.52H534.243V64.52ZM534.243 56.84H536.243V50.9281L532.654 55.6258L534.243 56.84ZM504.483 18.536V16.536H502.483V18.536H504.483ZM511.299 18.536H513.299V16.536H511.299V18.536ZM534.051 55.496L535.557 56.812L536.051 56.2467V55.496H534.051ZM534.051 20.536H540.963V16.536H534.051V20.536ZM538.963 18.536V64.52H542.963V18.536H538.963ZM540.963 62.52H534.243V66.52H540.963V62.52ZM536.243 64.52V56.84H532.243V64.52H536.243ZM534.243 56.84C532.654 55.6258 532.654 55.6253 532.654 55.6248C532.654 55.6247 532.655 55.6243 532.655 55.6241C532.655 55.6236 532.656 55.6233 532.656 55.6232C532.656 55.6228 532.656 55.6229 532.655 55.6236C532.654 55.6249 532.652 55.6282 532.648 55.6334C532.64 55.6438 532.625 55.662 532.605 55.6873C532.565 55.7379 532.5 55.8173 532.413 55.9212C532.238 56.1292 531.973 56.4347 531.625 56.8051C530.926 57.5482 529.906 58.5407 528.627 59.5303C526.037 61.5349 522.576 63.384 518.691 63.384V67.384C523.83 67.384 528.145 64.9611 531.075 62.6937C532.556 61.5473 533.732 60.4038 534.539 59.5449C534.944 59.1143 535.259 58.7523 535.477 58.493C535.585 58.3633 535.67 58.2591 535.73 58.1846C535.759 58.1474 535.783 58.1175 535.8 58.0956C535.809 58.0847 535.816 58.0757 535.821 58.0688C535.824 58.0653 535.826 58.0624 535.828 58.06C535.829 58.0587 535.829 58.0577 535.83 58.0567C535.831 58.0562 535.831 58.0556 535.831 58.0554C535.832 58.0548 535.832 58.0542 534.243 56.84ZM518.691 63.384C514.647 63.384 511.688 61.9592 509.703 59.579C507.677 57.1503 506.483 53.5036 506.483 48.776H502.483C502.483 54.1284 503.833 58.7857 506.631 62.141C509.47 65.5448 513.615 67.384 518.691 67.384V63.384ZM506.483 48.776V18.536H502.483V48.776H506.483ZM504.483 20.536H511.299V16.536H504.483V20.536ZM509.299 18.536V49.544H513.299V18.536H509.299ZM509.299 49.544C509.299 53.53 510.258 56.795 512.017 59.2319C513.79 61.6866 516.28 63.1649 519.056 63.6999C524.541 64.7567 530.901 62.1402 535.557 56.812L532.545 54.18C528.561 58.7398 523.545 60.4913 519.813 59.7721C517.981 59.4191 516.404 58.4734 515.26 56.8901C514.104 55.289 513.299 52.902 513.299 49.544H509.299ZM536.051 55.496V18.536H532.051V55.496H536.051ZM567.437 17.576L567.307 15.5802L567.297 15.5809L567.286 15.5817L567.437 17.576ZM574.061 19.688L575.944 20.3629L576.352 19.2242L575.533 18.3339L574.061 19.688ZM572.237 24.776L570.785 26.1515L573.022 28.5127L574.12 25.4509L572.237 24.776ZM556.589 26.504L554.826 25.5596L554.589 26.002V26.504H556.589ZM556.589 64.52V66.52H558.589V64.52H556.589ZM549.773 64.52H547.773V66.52H549.773V64.52ZM549.773 18.536V16.536H547.773V18.536H549.773ZM556.589 18.536H558.589V16.536H556.589V18.536ZM556.589 24.68H554.589V31.1688L558.242 25.8059L556.589 24.68ZM567.567 19.5718C569.374 19.454 570.673 19.8848 571.495 20.305C571.912 20.518 572.214 20.7322 572.399 20.8801C572.491 20.9538 572.553 21.0103 572.586 21.0406C572.602 21.0557 572.61 21.0641 572.611 21.0648C572.611 21.0651 572.609 21.0635 572.606 21.0598C572.604 21.0579 572.602 21.0555 572.599 21.0526C572.598 21.0511 572.596 21.0495 572.594 21.0478C572.594 21.0469 572.593 21.046 572.592 21.045C572.592 21.0446 572.591 21.0438 572.591 21.0436C572.59 21.0429 572.589 21.0421 574.061 19.688C575.533 18.3339 575.532 18.3331 575.532 18.3323C575.531 18.3321 575.531 18.3313 575.53 18.3307C575.529 18.3296 575.528 18.3285 575.527 18.3274C575.525 18.325 575.523 18.3226 575.52 18.3199C575.515 18.3147 575.51 18.3089 575.504 18.3025C575.491 18.2897 575.477 18.2746 575.46 18.2574C575.426 18.2231 575.383 18.1803 575.33 18.1303C575.224 18.0305 575.079 17.9017 574.896 17.7549C574.529 17.4618 574.002 17.094 573.315 16.743C571.93 16.0352 569.917 15.41 567.307 15.5802L567.567 19.5718ZM572.178 19.0131L570.354 24.1011L574.12 25.4509L575.944 20.3629L572.178 19.0131ZM572.237 24.776C573.689 23.4005 573.689 23.4001 573.688 23.3996C573.688 23.3995 573.688 23.399 573.687 23.3986C573.687 23.398 573.686 23.3972 573.685 23.3964C573.684 23.3949 573.682 23.3931 573.68 23.391C573.676 23.387 573.671 23.3821 573.666 23.3763C573.655 23.3647 573.64 23.3497 573.622 23.3315C573.586 23.2951 573.537 23.2458 573.475 23.1855C573.351 23.0651 573.176 22.8998 572.954 22.7048C572.513 22.3164 571.879 21.8009 571.096 21.2834C569.569 20.2742 567.28 19.128 564.653 19.128V23.128C566.154 23.128 567.658 23.8058 568.89 24.6206C569.487 25.0151 569.975 25.4116 570.311 25.7072C570.478 25.8542 570.605 25.9739 570.686 26.053C570.727 26.0924 570.756 26.1215 570.773 26.1386C570.781 26.1471 570.786 26.1526 570.788 26.1548C570.789 26.1559 570.79 26.1562 570.789 26.1557C570.789 26.1554 570.788 26.1549 570.788 26.1542C570.787 26.1539 570.787 26.1535 570.787 26.153C570.786 26.1528 570.786 26.1524 570.786 26.1523C570.786 26.1519 570.785 26.1515 572.237 24.776ZM564.653 19.128C561.331 19.128 558.84 20.8526 557.276 22.3893C556.482 23.1685 555.882 23.942 555.479 24.521C555.276 24.8122 555.12 25.0587 555.011 25.2382C554.957 25.3281 554.914 25.4017 554.884 25.456C554.868 25.4832 554.856 25.5057 554.846 25.523C554.841 25.5317 554.837 25.5391 554.834 25.5452C554.832 25.5483 554.831 25.551 554.829 25.5534C554.829 25.5546 554.828 25.5557 554.828 25.5567C554.827 25.5572 554.827 25.5579 554.827 25.5582C554.827 25.5589 554.826 25.5596 556.589 26.504C558.352 27.4484 558.352 27.4491 558.351 27.4497C558.351 27.4498 558.351 27.4504 558.351 27.4508C558.35 27.4515 558.35 27.4521 558.35 27.4527C558.349 27.4537 558.349 27.4545 558.349 27.455C558.348 27.4559 558.348 27.4556 558.349 27.4541C558.351 27.4511 558.355 27.4434 558.362 27.4312C558.376 27.4068 558.4 27.3648 558.435 27.3078C558.504 27.1933 558.613 27.0198 558.761 26.807C559.06 26.378 559.504 25.8075 560.079 25.2427C561.251 24.0914 562.791 23.128 564.653 23.128V19.128ZM554.589 26.504V64.52H558.589V26.504H554.589ZM556.589 62.52H549.773V66.52H556.589V62.52ZM551.773 64.52V18.536H547.773V64.52H551.773ZM549.773 20.536H556.589V16.536H549.773V20.536ZM554.589 18.536V24.68H558.589V18.536H554.589ZM556.589 24.68C558.242 25.8059 558.242 25.8064 558.241 25.8069C558.241 25.807 558.241 25.8074 558.241 25.8076C558.241 25.8081 558.24 25.8085 558.24 25.8087C558.24 25.8093 558.24 25.8094 558.24 25.8092C558.24 25.8087 558.242 25.8067 558.244 25.8032C558.249 25.7963 558.258 25.7833 558.271 25.7648C558.297 25.7277 558.34 25.6684 558.399 25.5899C558.516 25.4328 558.695 25.1999 558.932 24.9153C559.406 24.3438 560.1 23.5765 560.97 22.7992C562.75 21.2082 565.057 19.762 567.588 19.5703L567.286 15.5817C563.481 15.8699 560.364 17.9758 558.304 19.8168C557.254 20.7555 556.424 21.6742 555.855 22.3597C555.569 22.7036 555.346 22.9919 555.192 23.1989C555.115 23.3025 555.054 23.386 555.012 23.4462C554.99 23.4763 554.973 23.5006 554.961 23.5187C554.954 23.5278 554.949 23.5353 554.945 23.5412C554.943 23.5441 554.941 23.5467 554.94 23.5488C554.939 23.5499 554.938 23.5509 554.938 23.5518C554.937 23.5522 554.937 23.5528 554.937 23.553C554.937 23.5535 554.936 23.5541 556.589 24.68Z" fill="white" mask="url(#path-1-outside-1_57_412)"/>
<path d="M368.705 129.464C367.361 129.656 365.345 129.656 364.385 129.656H357.953V155H350.753V91.448H369.761C384.641 91.448 389.921 101.24 389.921 109.4C389.921 120.92 382.049 127.928 368.705 129.464ZM357.953 128.504H364.481C375.905 128.504 382.241 122.456 382.241 111.416C382.241 102.392 378.017 92.696 366.113 92.696H357.953V128.504ZM413.218 107.576C417.634 107.288 419.842 109.688 419.842 109.688L418.018 114.776C418.018 114.776 414.562 111.128 410.434 111.128C405.25 111.128 402.37 116.504 402.37 116.504V154.52H395.554V108.536H402.37V114.68C402.37 114.68 406.882 108.056 413.218 107.576ZM441.683 107.48C453.875 107.48 463.859 118.232 463.859 131.576C463.859 144.824 453.875 155.576 441.683 155.576C429.395 155.576 419.507 144.824 419.507 131.576C419.507 118.232 429.395 107.48 441.683 107.48ZM448.883 153.272C456.755 150.488 459.923 138.488 455.891 126.488C451.859 114.488 442.259 107 434.387 109.784C426.515 112.568 423.347 124.568 427.379 136.568C431.411 148.568 441.107 156.056 448.883 153.272ZM500.986 90.968H507.706V154.616H500.89V148.76C488.986 163.448 468.73 152.504 468.73 132.152C468.73 121.88 474.01 107.864 489.274 107.864C496.57 107.864 500.89 114.488 500.89 114.488L500.986 90.968ZM500.89 146.84V116.792C491.482 102.2 475.93 111.704 475.93 130.712C475.93 149.432 488.122 162.968 500.89 146.84ZM545.676 108.536H552.588V154.52H545.868V146.84C545.868 146.84 539.34 155.384 530.316 155.384C521.196 155.384 516.108 148.856 516.108 138.776V108.536H522.924V139.544C522.924 154.232 537.036 155.384 545.676 145.496V108.536ZM585.878 153.944C594.614 153.272 596.822 143 596.822 143L600.854 143.384C600.854 143.384 595.574 156.248 581.27 155.48C567.734 154.808 559.286 143.672 559.286 131.576C559.286 120.056 567.35 108.536 579.062 107.768C589.814 107 597.782 112.76 600.854 121.304L593.078 122.36C593.078 122.36 588.854 107.864 578.198 108.824C570.23 109.592 565.526 116.408 565.526 126.488C565.526 139.544 574.55 154.712 585.878 153.944ZM623.598 151.928L623.982 154.328C623.982 154.328 621.39 155.096 616.782 155.096C610.35 155.096 607.758 150.68 607.758 146.456V109.496H602.478V108.536H607.854C611.694 108.536 613.518 105.56 613.518 101.816V95.672L614.67 95.192V108.536H621.39V109.496H614.67V150.2C614.67 152.408 615.822 154.52 618.222 154.52C621.102 154.52 623.598 151.928 623.598 151.928ZM647.618 127.736C654.338 129.848 661.826 132.248 661.826 140.888C661.826 148.088 656.066 155.288 644.354 155.288C634.562 155.288 628.322 150.584 628.322 150.584L631.394 145.304C631.394 145.304 637.25 150.584 646.178 151.736C652.802 152.6 659.426 149.432 659.426 144.152C659.426 139.736 653.378 137.72 648.578 135.8C644.45 134.264 638.114 132.728 633.314 130.136C629.282 128.024 624.77 123.512 627.65 115.448C629.378 110.456 634.178 107.48 642.146 107.48C652.61 107.48 658.754 114.968 658.754 114.968L655.394 121.4C655.394 121.4 649.346 111.512 642.722 109.88C637.922 108.632 633.314 109.4 631.682 113.048C628.802 119.672 637.154 123.896 640.898 125.24L647.618 127.736Z" fill="white"/>
</svg>
