<svg width="1010" height="72" viewBox="0 0 1010 72" fill="none" xmlns="http://www.w3.org/2000/svg">
<mask id="path-1-outside-1_57_641" maskUnits="userSpaceOnUse" x="434" y="-2" width="144" height="72" fill="black">
<rect fill="white" x="434" y="-2" width="144" height="72"/>
<path d="M450.606 2.696H443.214V30.728C443.214 30.824 443.31 30.92 443.406 30.92H464.526V32.264H443.406C443.31 32.264 443.214 32.36 443.214 32.456V65H436.11V1.44799H476.142V5.86399C476.142 5.86399 460.11 2.696 450.606 2.696ZM491.013 17.576C501.669 17.576 508.869 23.24 508.869 34.088V64.52H502.149V58.088C486.213 71.72 470.085 64.616 470.085 50.696C470.085 39.944 482.949 29.576 502.149 34.28C502.149 28.424 499.461 18.536 491.301 18.536C481.797 18.536 475.749 30.44 475.749 30.44L472.005 26.408C474.597 23.24 481.221 17.576 491.013 17.576ZM502.149 56.84V35.528C491.781 32.36 478.341 36.968 478.341 50.984C478.341 58.28 483.045 62.792 489.189 62.792C496.005 62.792 502.149 56.84 502.149 56.84ZM575.659 62.504L575.563 67.112C569.611 67.112 566.251 63.752 562.987 60.584C557.803 63.848 551.659 65.672 545.611 65.672C530.923 65.672 515.179 55.496 515.179 33.128C515.179 14.216 527.659 0.967995 545.611 0.967995C560.683 0.967995 575.851 12.104 575.851 33.512C575.851 43.784 572.107 52.52 565.675 58.376C568.363 61.064 572.203 62.504 575.659 62.504ZM569.515 39.464C568.939 21.8 558.283 2.696 542.059 2.696C536.203 2.696 531.211 4.712 527.563 8.648C523.531 13.16 521.419 19.976 521.707 27.944C522.187 45.224 532.939 63.848 549.259 63.848C554.251 63.848 558.667 62.216 562.027 59.528C562.027 59.528 556.075 52.232 550.795 52.232V51.08C558.475 51.08 564.235 57.128 564.235 57.128C567.979 52.808 569.803 46.664 569.515 39.464Z"/>
</mask>
<path d="M443.214 2.696V0.695995H441.214V2.696H443.214ZM464.526 30.92H466.526V28.92H464.526V30.92ZM464.526 32.264V34.264H466.526V32.264H464.526ZM443.214 65V67H445.214V65H443.214ZM436.11 65H434.11V67H436.11V65ZM436.11 1.44799V-0.552006H434.11V1.44799H436.11ZM476.142 1.44799H478.142V-0.552006H476.142V1.44799ZM476.142 5.86399L475.755 7.82605L478.142 8.29788V5.86399H476.142ZM450.606 0.695995H443.214V4.696H450.606V0.695995ZM441.214 2.696V30.728H445.214V2.696H441.214ZM441.214 30.728C441.214 31.4265 441.543 31.9575 441.86 32.2742C442.177 32.5909 442.708 32.92 443.406 32.92V28.92C444.009 28.92 444.444 29.2011 444.688 29.4458C444.933 29.6905 445.214 30.1255 445.214 30.728H441.214ZM443.406 32.92H464.526V28.92H443.406V32.92ZM462.526 30.92V32.264H466.526V30.92H462.526ZM464.526 30.264H443.406V34.264H464.526V30.264ZM443.406 30.264C442.708 30.264 442.177 30.5931 441.86 30.9098C441.543 31.2265 441.214 31.7575 441.214 32.456H445.214C445.214 33.0585 444.933 33.4935 444.688 33.7382C444.444 33.9829 444.009 34.264 443.406 34.264V30.264ZM441.214 32.456V65H445.214V32.456H441.214ZM443.214 63H436.11V67H443.214V63ZM438.11 65V1.44799H434.11V65H438.11ZM436.11 3.44799H476.142V-0.552006H436.11V3.44799ZM474.142 1.44799V5.86399H478.142V1.44799H474.142ZM476.142 5.86399C476.53 3.90193 476.53 3.9019 476.53 3.90186C476.529 3.90182 476.529 3.90177 476.529 3.9017C476.528 3.90158 476.527 3.90141 476.526 3.90119C476.524 3.90074 476.521 3.90011 476.517 3.89929C476.508 3.89766 476.496 3.89527 476.48 3.89215C476.448 3.88592 476.401 3.87679 476.34 3.86494C476.218 3.84125 476.039 3.80671 475.807 3.76287C475.345 3.6752 474.675 3.5503 473.843 3.40057C472.178 3.10124 469.859 2.70212 467.24 2.30283C462.034 1.50932 455.521 0.695995 450.606 0.695995V4.696C455.195 4.696 461.451 5.46667 466.637 6.25716C469.213 6.64987 471.496 7.04275 473.135 7.33742C473.954 7.48469 474.611 7.60729 475.062 7.69287C475.288 7.73566 475.462 7.76918 475.579 7.79189C475.638 7.80325 475.682 7.8119 475.712 7.81766C475.727 7.82054 475.737 7.8227 475.745 7.8241C475.748 7.82481 475.751 7.82532 475.752 7.82565C475.753 7.82581 475.754 7.82593 475.754 7.826C475.754 7.82603 475.754 7.82604 475.755 7.82606C475.755 7.82606 475.755 7.82605 476.142 5.86399ZM508.869 64.52V66.52H510.869V64.52H508.869ZM502.149 64.52H500.149V66.52H502.149V64.52ZM502.149 58.088H504.149V53.7452L500.849 56.5682L502.149 58.088ZM502.149 34.28L501.673 36.2225L504.149 36.8291V34.28H502.149ZM475.749 30.44L474.284 31.8009L476.234 33.9013L477.532 31.3459L475.749 30.44ZM472.005 26.408L470.457 25.1415L469.353 26.4911L470.54 27.7689L472.005 26.408ZM502.149 56.84L503.541 58.2765L504.149 57.6871V56.84H502.149ZM502.149 35.528H504.149V34.0478L502.734 33.6153L502.149 35.528ZM491.013 19.576C496.006 19.576 499.946 20.9023 502.612 23.2617C505.242 25.5893 506.869 29.1313 506.869 34.088H510.869C510.869 28.1967 508.897 23.4827 505.263 20.2663C501.665 17.0817 496.676 15.576 491.013 15.576V19.576ZM506.869 34.088V64.52H510.869V34.088H506.869ZM508.869 62.52H502.149V66.52H508.869V62.52ZM504.149 64.52V58.088H500.149V64.52H504.149ZM500.849 56.5682C493.25 63.0688 485.922 64.3743 480.717 62.8088C475.565 61.259 472.085 56.8013 472.085 50.696H468.085C468.085 58.5107 472.669 64.565 479.565 66.6392C486.409 68.6977 495.113 66.7392 503.449 59.6078L500.849 56.5682ZM472.085 50.696C472.085 41.7638 483.172 31.6898 501.673 36.2225L502.625 32.3374C482.726 27.4622 468.085 38.1242 468.085 50.696H472.085ZM504.149 34.28C504.149 31.1122 503.433 26.8372 501.554 23.278C499.65 19.6737 496.373 16.536 491.301 16.536V20.536C494.39 20.536 496.536 22.3423 498.017 25.1459C499.521 27.9948 500.149 31.5918 500.149 34.28H504.149ZM491.301 16.536C485.698 16.536 481.309 20.0257 478.48 23.1441C477.036 24.7357 475.917 26.3187 475.159 27.5005C474.779 28.0935 474.486 28.5907 474.286 28.9445C474.186 29.1216 474.109 29.2632 474.056 29.3633C474.029 29.4134 474.008 29.4531 473.993 29.4818C473.986 29.4962 473.98 29.5078 473.975 29.5165C473.973 29.5209 473.971 29.5245 473.97 29.5275C473.969 29.5289 473.968 29.5302 473.968 29.5313C473.967 29.5319 473.967 29.5326 473.967 29.5328C473.966 29.5335 473.966 29.5341 475.749 30.44C477.532 31.3459 477.532 31.3464 477.532 31.3469C477.532 31.347 477.532 31.3474 477.531 31.3476C477.531 31.348 477.531 31.3482 477.531 31.3482C477.531 31.3482 477.531 31.3476 477.532 31.3462C477.534 31.3435 477.536 31.338 477.541 31.3299C477.549 31.3135 477.563 31.2864 477.583 31.2493C477.623 31.1751 477.685 31.0609 477.769 30.9124C477.937 30.6153 478.191 30.1825 478.526 29.6595C479.2 28.6093 480.186 27.2163 481.442 25.8319C484.013 22.9983 487.401 20.536 491.301 20.536V16.536ZM477.215 29.0791L473.471 25.0471L470.54 27.7689L474.284 31.8009L477.215 29.0791ZM473.553 27.6745C475.91 24.7935 482.018 19.576 491.013 19.576V15.576C480.425 15.576 473.284 21.6865 470.457 25.1415L473.553 27.6745ZM504.149 56.84V35.528H500.149V56.84H504.149ZM502.734 33.6153C497.105 31.8955 490.593 32.2589 485.409 35.0512C480.119 37.9004 476.341 43.2244 476.341 50.984H480.341C480.341 44.7276 483.283 40.7395 487.306 38.5728C491.434 36.3491 496.825 35.9925 501.565 37.4407L502.734 33.6153ZM476.341 50.984C476.341 55.0694 477.666 58.54 480.013 61.0037C482.363 63.4695 485.612 64.792 489.189 64.792V60.792C486.622 60.792 484.447 59.8585 482.909 58.2443C481.369 56.628 480.341 54.1946 480.341 50.984H476.341ZM489.189 64.792C493.142 64.792 496.763 63.0838 499.283 61.5134C500.565 60.7146 501.616 59.9176 502.349 59.3184C502.716 59.018 503.006 58.7653 503.208 58.5841C503.309 58.4935 503.388 58.4205 503.444 58.3683C503.472 58.3422 503.494 58.3213 503.51 58.3058C503.518 58.2981 503.525 58.2918 503.53 58.2869C503.533 58.2844 503.535 58.2823 503.537 58.2806C503.537 58.2797 503.538 58.2789 503.539 58.2783C503.539 58.2779 503.54 58.2775 503.54 58.2773C503.54 58.2769 503.541 58.2765 502.149 56.84C500.758 55.4035 500.758 55.4032 500.758 55.4028C500.758 55.4028 500.759 55.4024 500.759 55.4023C500.759 55.402 500.76 55.4017 500.76 55.4016C500.76 55.4013 500.76 55.4013 500.759 55.4018C500.759 55.4026 500.756 55.4048 500.753 55.4083C500.745 55.4154 500.732 55.4279 500.713 55.4454C500.676 55.4803 500.616 55.5353 500.536 55.6074C500.375 55.7517 500.132 55.964 499.817 56.2216C499.185 56.7384 498.274 57.4294 497.168 58.1186C494.912 59.5242 492.053 60.792 489.189 60.792V64.792ZM575.659 62.504L577.659 62.5457L577.701 60.504H575.659V62.504ZM575.563 67.112V69.112H577.522L577.563 67.1537L575.563 67.112ZM562.987 60.584L564.38 59.1488L563.252 58.0539L561.921 58.8915L562.987 60.584ZM565.675 58.376L564.329 56.8971L562.779 58.3082L564.261 59.7902L565.675 58.376ZM569.515 39.464L567.516 39.5292L567.516 39.5366L567.517 39.5439L569.515 39.464ZM527.563 8.648L526.096 7.28847L526.084 7.30179L526.072 7.31534L527.563 8.648ZM521.707 27.944L523.706 27.8885L523.706 27.8801L523.706 27.8718L521.707 27.944ZM562.027 59.528L563.276 61.0897L564.853 59.8284L563.577 58.2637L562.027 59.528ZM550.795 52.232H548.795V54.232H550.795V52.232ZM550.795 51.08V49.08H548.795V51.08H550.795ZM564.235 57.128L562.787 58.5073L564.305 60.1013L565.746 58.4379L564.235 57.128ZM573.659 62.4623L573.563 67.0703L577.563 67.1537L577.659 62.5457L573.659 62.4623ZM575.563 65.112C570.516 65.112 567.694 62.3652 564.38 59.1488L561.594 62.0192C564.808 65.1388 568.706 69.112 575.563 69.112V65.112ZM561.921 58.8915C557.045 61.9619 551.268 63.672 545.611 63.672V67.672C552.049 67.672 558.561 65.7341 564.053 62.2765L561.921 58.8915ZM545.611 63.672C538.71 63.672 531.605 61.279 526.245 56.3199C520.92 51.3931 517.179 43.8077 517.179 33.128H513.179C513.179 44.8163 517.31 53.5029 523.529 59.2561C529.713 64.977 537.824 67.672 545.611 67.672V63.672ZM517.179 33.128C517.179 24.1161 520.147 16.5885 525.117 11.3297C530.078 6.07939 537.148 2.96799 545.611 2.96799V-1.03201C536.122 -1.03201 527.976 2.4806 522.209 8.5823C516.451 14.6755 513.179 23.2279 513.179 33.128H517.179ZM545.611 2.96799C559.652 2.96799 573.851 13.281 573.851 33.512H577.851C577.851 10.927 561.714 -1.03201 545.611 -1.03201V2.96799ZM573.851 33.512C573.851 43.2909 570.295 51.4648 564.329 56.8971L567.021 59.8549C573.919 53.5752 577.851 44.2771 577.851 33.512H573.851ZM564.261 59.7902C567.344 62.8731 571.701 64.504 575.659 64.504V60.504C572.705 60.504 569.382 59.2549 567.089 56.9618L564.261 59.7902ZM571.514 39.3988C571.215 30.2247 568.306 20.6565 563.307 13.329C558.307 5.99852 551.042 0.695995 542.059 0.695995V4.696C549.3 4.696 555.475 8.94547 560.003 15.583C564.532 22.2235 567.239 31.0393 567.516 39.5292L571.514 39.3988ZM542.059 0.695995C535.717 0.695995 530.168 2.8952 526.096 7.28847L529.03 10.0075C532.254 6.52879 536.689 4.696 542.059 4.696V0.695995ZM526.072 7.31534C521.605 12.3138 519.407 19.6858 519.708 28.0162L523.706 27.8718C523.431 20.2662 525.457 14.0062 529.054 9.98066L526.072 7.31534ZM519.708 27.9995C519.958 36.9989 522.875 46.3624 527.906 53.5256C532.944 60.6973 540.257 65.848 549.259 65.848V61.848C541.941 61.848 535.718 57.6867 531.18 51.2264C526.635 44.7576 523.936 36.1691 523.706 27.8885L519.708 27.9995ZM549.259 65.848C554.694 65.848 559.553 64.0683 563.276 61.0897L560.778 57.9663C557.781 60.3637 553.808 61.848 549.259 61.848V65.848ZM562.027 59.528C563.577 58.2637 563.576 58.2634 563.576 58.263C563.576 58.2628 563.576 58.2624 563.575 58.2621C563.575 58.2614 563.574 58.2607 563.573 58.2598C563.572 58.258 563.57 58.2558 563.568 58.2531C563.564 58.2478 563.558 58.2408 563.551 58.232C563.536 58.2146 563.516 58.1903 563.49 58.1598C563.439 58.0986 563.366 58.0122 563.272 57.9039C563.084 57.6877 562.814 57.3836 562.474 57.021C561.798 56.2983 560.833 55.3298 559.686 54.3555C558.544 53.3861 557.182 52.3767 555.708 51.6019C554.249 50.8344 552.559 50.232 550.795 50.232V54.232C551.671 54.232 552.705 54.5416 553.846 55.1421C554.974 55.7353 556.09 56.5499 557.096 57.4045C558.097 58.2542 558.95 59.1097 559.555 59.755C559.856 60.0764 560.092 60.3423 560.25 60.5251C560.329 60.6163 560.389 60.6866 560.427 60.7324C560.447 60.7552 560.461 60.772 560.469 60.7821C560.473 60.7872 560.476 60.7906 560.477 60.7923C560.478 60.7931 560.478 60.7936 560.478 60.7936C560.478 60.7936 560.478 60.7935 560.478 60.7932C560.478 60.7931 560.478 60.7929 560.478 60.7928C560.478 60.7926 560.477 60.7923 562.027 59.528ZM552.795 52.232V51.08H548.795V52.232H552.795ZM550.795 53.08C554.118 53.08 557.105 54.3952 559.329 55.7962C560.43 56.4895 561.31 57.1834 561.912 57.7001C562.212 57.9577 562.44 58.1692 562.588 58.3118C562.663 58.3831 562.717 58.437 562.75 58.4705C562.767 58.4873 562.779 58.499 562.785 58.5053C562.788 58.5084 562.789 58.5102 562.79 58.5105C562.79 58.5107 562.79 58.5105 562.789 58.51C562.789 58.5097 562.789 58.5094 562.788 58.5089C562.788 58.5087 562.788 58.5083 562.788 58.5082C562.787 58.5078 562.787 58.5073 564.235 57.128C565.683 55.7487 565.683 55.7482 565.682 55.7477C565.682 55.7475 565.682 55.7469 565.681 55.7465C565.68 55.7457 565.68 55.7448 565.679 55.7438C565.677 55.7418 565.674 55.7394 565.672 55.7367C565.667 55.7313 565.66 55.7243 565.652 55.716C565.636 55.6994 565.614 55.6771 565.586 55.6496C565.532 55.5946 565.455 55.5185 565.357 55.4244C565.16 55.2363 564.878 54.9753 564.518 54.6659C563.8 54.0486 562.76 53.2305 561.461 52.4118C558.885 50.7888 555.152 49.08 550.795 49.08V53.08ZM565.746 58.4379C569.907 53.6375 571.816 46.9495 571.513 39.3841L567.517 39.5439C567.79 46.3785 566.051 51.9785 562.724 55.8181L565.746 58.4379Z" fill="white" mask="url(#path-1-outside-1_57_641)"/>
</svg>
